<svg width="22" height="22" viewBox="0 0 22 22" fill="none" xmlns="http://www.w3.org/2000/svg">
<path d="M5.43777 14.473C6.20266 14.473 6.79721 15.1448 6.79721 15.8919C6.79721 16.639 6.20266 17.3108 5.43777 17.3108C4.67288 17.3108 4.07833 16.639 4.07833 15.8919C4.07833 15.1448 4.67288 14.473 5.43777 14.473Z" fill="currentColor"/>
<path d="M9.5161 14.473C10.281 14.473 10.8755 15.1448 10.8755 15.8919C10.8755 16.639 10.281 17.3108 9.5161 17.3108C8.75121 17.3108 8.15666 16.639 8.15666 15.8919C8.15666 15.1448 8.75121 14.473 9.5161 14.473Z" fill="currentColor"/>
<path d="M5.43777 9.93243C6.20266 9.93243 6.79721 10.6043 6.79721 11.3514C6.79721 12.0984 6.20266 12.7703 5.43777 12.7703C4.67288 12.7703 4.07833 12.0984 4.07833 11.3514C4.07833 10.6043 4.67288 9.93243 5.43777 9.93243Z" fill="currentColor"/>
<path d="M9.5161 9.93243C10.281 9.93243 10.8755 10.6043 10.8755 11.3514C10.8755 12.0984 10.281 12.7703 9.5161 12.7703C8.75121 12.7703 8.15666 12.0984 8.15666 11.3514C8.15666 10.6043 8.75121 9.93243 9.5161 9.93243Z" fill="currentColor"/>
<path d="M13.5944 14.473C14.3593 14.473 14.9539 15.1448 14.9539 15.8919C14.9539 16.639 14.3593 17.3108 13.5944 17.3108C12.8295 17.3108 12.235 16.639 12.235 15.8919C12.235 15.1448 12.8295 14.473 13.5944 14.473Z" fill="currentColor"/>
<path fill-rule="evenodd" clip-rule="evenodd" d="M11.3153 7.25296e-08C12.4917 7.25296e-08 13.4267 8.19564e-08 14.1796 0.0643006C14.9562 0.130139 15.6122 0.268567 16.2124 0.586395C16.7291 0.86148 17.1943 1.22367 17.5912 1.65506C17.7302 1.80609 17.6933 2.04633 17.5342 2.17455C17.0246 2.58528 16.5797 3.10602 16.133 3.59145C15.9866 3.75056 15.7349 3.7218 15.5585 3.59911C15.3814 3.47593 15.17 3.40541 14.9539 3.40541H4.07833C2.6712 3.40541 2.67119 5.67566 4.07833 5.67566H13.2977C13.6004 5.67566 13.7521 6.05267 13.538 6.27316L12.2887 7.55964C12.225 7.62527 12.1385 7.66215 12.0484 7.66215H1.63127V12.8946C1.63127 14.1747 1.63127 15.0846 1.68769 15.7966C1.83118 17.6565 3.03566 19.0712 4.9854 19.2386C7.94209 19.4884 11.1003 19.4927 14.0468 19.2386C15.9991 19.0742 17.1981 17.6549 17.3445 15.7966C17.432 14.6717 17.4036 13.5377 17.4011 12.4094C17.4009 12.3166 17.4367 12.2276 17.5005 12.1619L18.452 11.182C18.6661 10.9615 19.0322 11.1177 19.0322 11.4295V12.921C19.0322 13.9246 19.049 14.9338 18.9706 15.9351C18.7644 18.5854 16.9374 20.7019 14.1796 20.9357C11.1347 21.1957 7.88724 21.1949 4.85264 20.9357C2.16091 20.7075 0.272715 18.6488 0.0615666 15.9351C0 15.1481 0 14.171 0 12.9408V8.05923C0 6.82897 0 5.85186 0.0615666 5.06487C0.267734 2.41523 2.09549 0.298036 4.85264 0.0643006C5.61052 -0.000427172 6.55277 7.25296e-08 7.74029 7.25296e-08H11.3153Z" fill="currentColor"/>
<path fill-rule="evenodd" clip-rule="evenodd" d="M21.2956 6.55843C22.2348 5.58537 22.2348 4.00773 21.2956 3.03467C20.3564 2.06161 18.8336 2.06161 17.8944 3.03467L12.5108 8.61222C12.2557 8.87655 12.1124 9.23506 12.1124 9.60888V11.1393C12.1124 11.9177 12.7215 12.5488 13.4728 12.5488H14.95C15.3108 12.5488 15.6569 12.4003 15.912 12.136L21.2956 6.55843ZM13.8713 9.19575L17.3549 5.58662L18.8324 7.11734L15.3488 10.7265C14.8485 11.2447 14.1277 11.1393 13.4728 11.1393C13.4728 10.4701 13.3638 9.72153 13.8713 9.19575ZM18.3169 4.58995L18.8562 4.03117C19.2642 3.60849 19.9257 3.60849 20.3337 4.03118C20.7417 4.45388 20.7417 5.13922 20.3337 5.56191L19.7944 6.12067L18.3169 4.58995Z" fill="currentColor"/>
</svg>
