<svg width="26" height="30" viewBox="0 0 26 30" fill="none" xmlns="http://www.w3.org/2000/svg">
<path fill-rule="evenodd" clip-rule="evenodd" d="M20 6.99994C20 3.13397 16.866 0 13 0C9.13403 0 6 3.13397 6 6.99994C6 10.8659 9.13403 13.9999 13 13.9999C16.866 13.9999 20 10.8659 20 6.99994ZM13 2.5C15.4854 2.5 17.5 4.51471 17.5 7C17.5 9.48523 15.4854 11.5 13 11.5C10.5146 11.5 8.5 9.48523 8.5 7C8.5 4.51471 10.5146 2.5 13 2.5Z" fill="currentColor"/>
<path fill-rule="evenodd" clip-rule="evenodd" d="M23.3633 18.6368C21.6755 16.949 19.387 16.0001 17 16.0001H9C6.61304 16.0001 4.32446 16.949 2.63672 18.6368C0.948975 20.3246 0 22.6131 0 25C0 26.3261 0.5271 27.5975 1.46484 28.5352C2.40259 29.4728 3.67383 30 5 30H21C22.3262 30 23.5974 29.4728 24.5352 28.5352C25.4729 27.5975 26 26.3261 26 25C26 22.6131 25.051 20.3246 23.3633 18.6368ZM23.5 25C23.5 23.2762 22.8147 21.6234 21.5957 20.4043C20.3767 19.1852 18.7239 18.5 17 18.5H9C7.27612 18.5 5.62329 19.1852 4.4043 20.4043C3.1853 21.6234 2.5 23.2762 2.5 25C2.5 25.6629 2.76343 26.2986 3.23242 26.7676C3.70142 27.2365 4.33716 27.5 5 27.5H21C21.6628 27.5 22.2986 27.2365 22.7676 26.7676C23.2366 26.2986 23.5 25.6629 23.5 25Z" fill="currentColor"/>
</svg>
