<svg width="20" height="20" viewBox="0 0 20 20" fill="none" xmlns="http://www.w3.org/2000/svg">
<path d="M10 7.5C8.366 7.5 7.5 8.366 7.5 10C7.5 11.634 8.5 12.5 10 12.5C11.5 12.5 12.5 11.634 12.5 10C12.5 8.366 11.634 7.5 10 7.5Z" fill="currentColor"/>
<path d="M11 2.07C11 1 11 0 10 0C9 0 9 1 9 2.07C7.23998 2.29319 5.60408 3.0951 4.34959 4.34959C3.0951 5.60408 2.29319 7.23998 2.07 9C1.00021 9 0 9 0 10C0 11 1.00021 11 2.07 11C2.29319 12.76 3.0951 14.3959 4.34959 15.6504C5.60408 16.9049 7.23998 17.7068 9 17.93C9 19 9 20 10 20C11 20 11 19 11 17.93C12.76 17.7068 14.3959 16.9049 15.6504 15.6504C16.9049 14.3959 17.7068 12.76 17.93 11C19.0002 11 20 11 20 10C20 9 19.0002 9 17.93 9C17.7068 7.23998 16.9049 5.60408 15.6504 4.34959C14.3959 3.0951 12.76 2.29319 11 2.07ZM10 16C6.69 16 4 13.31 4 10C4 6.69 6.69 4 10 4C13.31 4 16 6.69 16 10C16 13.31 13.31 16 10 16Z" fill="currentColor"/>
</svg>
